<svg width="50" height="50" viewBox="0 0 50 50" fill="none" xmlns="http://www.w3.org/2000/svg">
<rect width="50" height="50" fill="#EBEBFF"/>
<mask id="mask0_1294_21200" style="mask-type:alpha" maskUnits="userSpaceOnUse" x="13" y="13" width="24" height="24">
<rect x="13" y="13" width="24" height="24" fill="#D9D9D9"/>
</mask>
<g mask="url(#mask0_1294_21200)">
<path d="M28.2998 29.7L23.9998 25.4V20H25.9998V24.6L29.6998 28.3L28.2998 29.7ZM15.8498 29.075C15.6331 28.5917 15.4581 28.0917 15.3248 27.575C15.1915 27.0583 15.0998 26.5333 15.0498 26H17.0748C17.1248 26.35 17.1956 26.7 17.2873 27.05C17.379 27.4 17.4915 27.7417 17.6248 28.075L15.8498 29.075ZM15.0498 24C15.0998 23.4667 15.1915 22.9375 15.3248 22.4125C15.4581 21.8875 15.6415 21.3833 15.8748 20.9L17.6248 21.9C17.4915 22.2333 17.379 22.575 17.2873 22.925C17.1956 23.275 17.1248 23.6333 17.0748 24H15.0498ZM19.1748 33.15C18.7248 32.8167 18.3081 32.4542 17.9248 32.0625C17.5415 31.6708 17.1831 31.25 16.8498 30.8L18.5998 29.8C18.8331 30.1 19.079 30.3792 19.3373 30.6375C19.5956 30.8958 19.8748 31.1417 20.1748 31.375L19.1748 33.15ZM18.6248 20.175L16.8498 19.175C17.1831 18.725 17.5415 18.3083 17.9248 17.925C18.3081 17.5417 18.7248 17.1833 19.1748 16.85L20.1748 18.625C19.8915 18.8583 19.6206 19.1042 19.3623 19.3625C19.104 19.6208 18.8581 19.8917 18.6248 20.175ZM23.9998 34.95C23.4665 34.9 22.9373 34.8083 22.4123 34.675C21.8873 34.5417 21.3831 34.3583 20.8998 34.125L21.8998 32.375C22.2331 32.5083 22.5748 32.6208 22.9248 32.7125C23.2748 32.8042 23.6331 32.875 23.9998 32.925V34.95ZM21.8998 17.625L20.8998 15.875C21.3831 15.6417 21.8873 15.4583 22.4123 15.325C22.9373 15.1917 23.4665 15.1 23.9998 15.05V17.075C23.6331 17.125 23.2748 17.1958 22.9248 17.2875C22.5748 17.3792 22.2331 17.4917 21.8998 17.625ZM25.9998 34.95V32.925C26.3665 32.875 26.7248 32.8042 27.0748 32.7125C27.4248 32.6208 27.7665 32.5083 28.0998 32.375L29.0998 34.125C28.6165 34.3583 28.1123 34.5417 27.5873 34.675C27.0623 34.8083 26.5331 34.9 25.9998 34.95ZM28.0998 17.625C27.7665 17.4917 27.4248 17.3792 27.0748 17.2875C26.7248 17.1958 26.3665 17.125 25.9998 17.075V15.05C26.5331 15.1 27.0623 15.1917 27.5873 15.325C28.1123 15.4583 28.6165 15.6417 29.0998 15.875L28.0998 17.625ZM30.8248 33.15L29.8248 31.375C30.1081 31.1417 30.379 30.8958 30.6373 30.6375C30.8956 30.3792 31.1415 30.1083 31.3748 29.825L33.1498 30.825C32.8165 31.275 32.4581 31.6958 32.0748 32.0875C31.6915 32.4792 31.2748 32.8333 30.8248 33.15ZM31.3748 20.175C31.1415 19.8917 30.8956 19.6208 30.6373 19.3625C30.379 19.1042 30.1081 18.8583 29.8248 18.625L30.8248 16.85C31.2748 17.1667 31.6915 17.5167 32.0748 17.9C32.4581 18.2833 32.8081 18.7 33.1248 19.15L31.3748 20.175ZM32.9248 24C32.8748 23.6333 32.804 23.275 32.7123 22.925C32.6206 22.575 32.5081 22.2333 32.3748 21.9L34.1248 20.875C34.3415 21.375 34.5206 21.8875 34.6623 22.4125C34.804 22.9375 34.8998 23.4667 34.9498 24H32.9248ZM34.1248 29.1L32.3748 28.1C32.5081 27.7667 32.6206 27.425 32.7123 27.075C32.804 26.725 32.8748 26.3667 32.9248 26H34.9498C34.8998 26.5333 34.8081 27.0625 34.6748 27.5875C34.5415 28.1125 34.3581 28.6167 34.1248 29.1Z" fill="#564FFD"/>
</g>
</svg>
