<svg width="50" height="50" viewBox="0 0 50 50" fill="none" xmlns="http://www.w3.org/2000/svg">
<rect width="50" height="50" fill="#E1F7E3"/>
<path d="M16 23C16 24.793 16.5244 26.4054 17.5761 27.8002C16.5248 26.4125 16 24.8242 16 23ZM16 23C16 21.1993 16.5184 19.5981 17.5479 18.229C16.5129 19.5959 16 21.1757 16 23ZM24 15C22.1757 15 20.5959 15.5129 19.229 16.5479C20.5981 15.5184 22.1993 15 24 15ZM24 15C25.8007 15 27.4019 15.5184 28.7709 16.5479C27.4041 15.5129 25.8243 15 24 15ZM35 31C35 30.1827 34.6973 29.4581 34.1196 28.8804C33.5419 28.3027 32.8173 28 32 28H32.075C32.9069 28 33.576 28.2838 34.144 28.8705C34.72 29.4655 35 30.157 35 31ZM35 31C35 31.6638 34.8004 32.2664 34.4159 32.7788C34.8103 32.2627 35 31.6795 35 31ZM21.945 30.7419L22.0103 30.7592C20.6395 30.4205 19.4573 29.7683 18.4507 28.7902C19.426 29.732 20.595 30.3859 21.945 30.7419ZM22.9266 30.959L22.8639 30.9457L23.0783 30.3025C23.0263 30.526 23 30.759 23 31C23 31.8173 23.3027 32.5419 23.8804 33.1196C24.4581 33.6973 25.1827 34 26 34C25.2628 34 24.6395 33.775 24.0885 33.3178C23.5278 32.8528 23.193 32.2912 23.0556 31.6039L22.9266 30.959ZM26 28C25.2826 28 24.6367 28.2332 24.0988 28.6809C24.1402 28.6455 24.1827 28.6109 24.2264 28.5769C24.7198 28.1932 25.2811 28 25.95 28H26ZM30.2682 28L30.567 27.5767C31.0268 26.9252 31.3801 26.2127 31.6272 25.4431C31.6691 25.3124 31.7075 25.1807 31.7423 25.0479C31.6043 25.5792 31.4168 26.0803 31.1806 26.5528L30.457 28H30.2682ZM32 34C32.6638 34 33.2664 33.8004 33.7788 33.4159C33.2627 33.8103 32.6795 34 32 34ZM32 23C32 21.1988 31.4813 19.5973 30.4513 18.2279C31.4868 19.5951 32 21.1752 32 23Z" fill="#23BD33" stroke="#23BD33" stroke-width="2"/>
</svg>
