<svg width="51" height="51" viewBox="0 0 51 51" fill="none" xmlns="http://www.w3.org/2000/svg">
<rect width="50" height="50" transform="translate(0.5 0.5)" fill="#FFF2E6"/>
<path opacity="0.2" d="M20.5 29.5C24.0899 29.5 27 26.5899 27 23C27 19.4101 24.0899 16.5 20.5 16.5C16.9101 16.5 14 19.4101 14 23C14 26.5899 16.9101 29.5 20.5 29.5Z" fill="#FD8E1F"/>
<path d="M20.5 29.5C24.0899 29.5 27 26.5899 27 23C27 19.4101 24.0899 16.5 20.5 16.5C16.9101 16.5 14 19.4101 14 23C14 26.5899 16.9101 29.5 20.5 29.5Z" stroke="#FD8E1F" stroke-width="2" stroke-miterlimit="10"/>
<path d="M28.9263 16.7421C29.8203 16.4903 30.7579 16.4329 31.676 16.5739C32.5941 16.7149 33.4713 17.0509 34.2485 17.5595C35.0257 18.0681 35.685 18.7373 36.1818 19.522C36.6786 20.3068 37.0015 21.189 37.1287 22.1091C37.2559 23.0291 37.1845 23.9658 36.9192 24.8559C36.6539 25.7461 36.2009 26.569 35.5908 27.2694C34.9807 27.9697 34.2276 28.5312 33.3822 28.916C32.5368 29.3008 31.6188 29.4999 30.69 29.5" stroke="#FD8E1F" stroke-width="2" stroke-linecap="round" stroke-linejoin="round"/>
<path d="M11.4995 34.1746C12.5147 32.7306 13.8624 31.552 15.4288 30.7384C16.9953 29.9248 18.7345 29.5001 20.4996 29.5C22.2648 29.4999 24.004 29.9246 25.5705 30.738C27.137 31.5515 28.4848 32.73 29.5001 34.1739" stroke="#FD8E1F" stroke-width="2" stroke-linecap="round" stroke-linejoin="round"/>
<path d="M30.6904 29.5C32.4557 29.4987 34.1953 29.9228 35.762 30.7364C37.3286 31.55 38.6761 32.7291 39.6905 34.1739" stroke="#FD8E1F" stroke-width="2" stroke-linecap="round" stroke-linejoin="round"/>
</svg>
