<svg width="50" height="50" viewBox="0 0 50 50" fill="none" xmlns="http://www.w3.org/2000/svg">
<rect width="50" height="50" fill="#F5F7FA"/>
<mask id="mask0_1294_21265" style="mask-type:alpha" maskUnits="userSpaceOnUse" x="13" y="13" width="24" height="24">
<rect x="13" y="13" width="24" height="24" fill="#D9D9D9"/>
</mask>
<g mask="url(#mask0_1294_21265)">
<mask id="path-2-inside-1_1294_21265" fill="white">
<path d="M22 29H24V21H22V29ZM26 29H28V21H26V29ZM25 35C23.6167 35 22.3167 34.7375 21.1 34.2125C19.8833 33.6875 18.825 32.975 17.925 32.075C17.025 31.175 16.3125 30.1167 15.7875 28.9C15.2625 27.6833 15 26.3833 15 25C15 23.6167 15.2625 22.3167 15.7875 21.1C16.3125 19.8833 17.025 18.825 17.925 17.925C18.825 17.025 19.8833 16.3125 21.1 15.7875C22.3167 15.2625 23.6167 15 25 15C26.3833 15 27.6833 15.2625 28.9 15.7875C30.1167 16.3125 31.175 17.025 32.075 17.925C32.975 18.825 33.6875 19.8833 34.2125 21.1C34.7375 22.3167 35 23.6167 35 25C35 26.3833 34.7375 27.6833 34.2125 28.9C33.6875 30.1167 32.975 31.175 32.075 32.075C31.175 32.975 30.1167 33.6875 28.9 34.2125C27.6833 34.7375 26.3833 35 25 35ZM25 33C27.2333 33 29.125 32.225 30.675 30.675C32.225 29.125 33 27.2333 33 25C33 22.7667 32.225 20.875 30.675 19.325C29.125 17.775 27.2333 17 25 17C22.7667 17 20.875 17.775 19.325 19.325C17.775 20.875 17 22.7667 17 25C17 27.2333 17.775 29.125 19.325 30.675C20.875 32.225 22.7667 33 25 33Z"/>
</mask>
<path d="M22 29H24V21H22V29ZM26 29H28V21H26V29ZM25 35C23.6167 35 22.3167 34.7375 21.1 34.2125C19.8833 33.6875 18.825 32.975 17.925 32.075C17.025 31.175 16.3125 30.1167 15.7875 28.9C15.2625 27.6833 15 26.3833 15 25C15 23.6167 15.2625 22.3167 15.7875 21.1C16.3125 19.8833 17.025 18.825 17.925 17.925C18.825 17.025 19.8833 16.3125 21.1 15.7875C22.3167 15.2625 23.6167 15 25 15C26.3833 15 27.6833 15.2625 28.9 15.7875C30.1167 16.3125 31.175 17.025 32.075 17.925C32.975 18.825 33.6875 19.8833 34.2125 21.1C34.7375 22.3167 35 23.6167 35 25C35 26.3833 34.7375 27.6833 34.2125 28.9C33.6875 30.1167 32.975 31.175 32.075 32.075C31.175 32.975 30.1167 33.6875 28.9 34.2125C27.6833 34.7375 26.3833 35 25 35ZM25 33C27.2333 33 29.125 32.225 30.675 30.675C32.225 29.125 33 27.2333 33 25C33 22.7667 32.225 20.875 30.675 19.325C29.125 17.775 27.2333 17 25 17C22.7667 17 20.875 17.775 19.325 19.325C17.775 20.875 17 22.7667 17 25C17 27.2333 17.775 29.125 19.325 30.675C20.875 32.225 22.7667 33 25 33Z" fill="#1D2026"/>
<path d="M22 29H20V31H22V29ZM24 29V31H26V29H24ZM24 21H26V19H24V21ZM22 21V19H20V21H22ZM26 29H24V31H26V29ZM28 29V31H30V29H28ZM28 21H30V19H28V21ZM26 21V19H24V21H26ZM22 31H24V27H22V31ZM26 29V21H22V29H26ZM24 19H22V23H24V19ZM20 21V29H24V21H20ZM26 31H28V27H26V31ZM30 29V21H26V29H30ZM28 19H26V23H28V19ZM24 21V29H28V21H24ZM25 33C23.877 33 22.8479 32.7885 21.8924 32.3762L20.3076 36.0488C21.7855 36.6865 23.3564 37 25 37V33ZM21.8924 32.3762C20.8981 31.9471 20.0532 31.3747 19.3392 30.6608L16.5108 33.4892C17.5968 34.5753 18.8686 35.4279 20.3076 36.0488L21.8924 32.3762ZM19.3392 30.6608C18.6253 29.9468 18.0529 29.1019 17.6238 28.1076L13.9512 29.6924C14.5721 31.1314 15.4247 32.4032 16.5108 33.4892L19.3392 30.6608ZM17.6238 28.1076C17.2115 27.1521 17 26.123 17 25H13C13 26.6436 13.3135 28.2145 13.9512 29.6924L17.6238 28.1076ZM17 25C17 23.877 17.2115 22.8479 17.6238 21.8924L13.9512 20.3076C13.3135 21.7855 13 23.3564 13 25H17ZM17.6238 21.8924C18.0529 20.8981 18.6253 20.0532 19.3392 19.3392L16.5108 16.5108C15.4247 17.5968 14.5721 18.8686 13.9512 20.3076L17.6238 21.8924ZM19.3392 19.3392C20.0532 18.6253 20.8981 18.0529 21.8924 17.6238L20.3076 13.9512C18.8686 14.5721 17.5968 15.4247 16.5108 16.5108L19.3392 19.3392ZM21.8924 17.6238C22.8479 17.2115 23.877 17 25 17V13C23.3564 13 21.7855 13.3135 20.3076 13.9512L21.8924 17.6238ZM25 17C26.123 17 27.1521 17.2115 28.1076 17.6238L29.6924 13.9512C28.2145 13.3135 26.6436 13 25 13V17ZM28.1076 17.6238C29.1019 18.0529 29.9468 18.6253 30.6608 19.3392L33.4892 16.5108C32.4032 15.4247 31.1314 14.5721 29.6924 13.9512L28.1076 17.6238ZM30.6608 19.3392C31.3747 20.0532 31.9471 20.8981 32.3762 21.8924L36.0488 20.3076C35.4279 18.8686 34.5753 17.5968 33.4892 16.5108L30.6608 19.3392ZM32.3762 21.8924C32.7885 22.8479 33 23.877 33 25H37C37 23.3564 36.6865 21.7855 36.0488 20.3076L32.3762 21.8924ZM33 25C33 26.123 32.7885 27.1521 32.3762 28.1076L36.0488 29.6924C36.6865 28.2145 37 26.6436 37 25H33ZM32.3762 28.1076C31.9471 29.1019 31.3747 29.9468 30.6608 30.6608L33.4892 33.4892C34.5753 32.4032 35.4279 31.1314 36.0488 29.6924L32.3762 28.1076ZM30.6608 30.6608C29.9468 31.3747 29.1019 31.9471 28.1076 32.3762L29.6924 36.0488C31.1314 35.4279 32.4032 34.5753 33.4892 33.4892L30.6608 30.6608ZM28.1076 32.3762C27.1521 32.7885 26.123 33 25 33V37C26.6436 37 28.2145 36.6865 29.6924 36.0488L28.1076 32.3762ZM25 35C27.7526 35 30.1563 34.0221 32.0892 32.0892L29.2608 29.2608C28.0937 30.4279 26.7141 31 25 31V35ZM32.0892 32.0892C34.0221 30.1563 35 27.7526 35 25H31C31 26.7141 30.4279 28.0937 29.2608 29.2608L32.0892 32.0892ZM35 25C35 22.2474 34.0221 19.8437 32.0892 17.9108L29.2608 20.7392C30.4279 21.9063 31 23.2859 31 25H35ZM32.0892 17.9108C30.1563 15.9779 27.7526 15 25 15V19C26.7141 19 28.0937 19.5721 29.2608 20.7392L32.0892 17.9108ZM25 15C22.2474 15 19.8437 15.9779 17.9108 17.9108L20.7392 20.7392C21.9063 19.5721 23.2859 19 25 19V15ZM17.9108 17.9108C15.9779 19.8437 15 22.2474 15 25H19C19 23.2859 19.5721 21.9063 20.7392 20.7392L17.9108 17.9108ZM15 25C15 27.7526 15.9779 30.1563 17.9108 32.0892L20.7392 29.2608C19.5721 28.0937 19 26.7141 19 25H15ZM17.9108 32.0892C19.8437 34.0221 22.2474 35 25 35V31C23.2859 31 21.9063 30.4279 20.7392 29.2608L17.9108 32.0892Z" fill="#1D2026" mask="url(#path-2-inside-1_1294_21265)"/>
</g>
</svg>
