<svg width="50" height="50" viewBox="0 0 50 50" fill="none" xmlns="http://www.w3.org/2000/svg">
<rect width="50" height="50" fill="#FFEEE8"/>
<mask id="mask0_1294_21273" style="mask-type:alpha" maskUnits="userSpaceOnUse" x="13" y="13" width="24" height="24">
<rect x="13" y="13" width="24" height="24" fill="#D9D9D9"/>
</mask>
<g mask="url(#mask0_1294_21273)">
<path d="M21 33H29V30C29 28.9 28.6083 27.9583 27.825 27.175C27.0417 26.3917 26.1 26 25 26C23.9 26 22.9583 26.3917 22.175 27.175C21.3917 27.9583 21 28.9 21 30V33ZM25 24C26.1 24 27.0417 23.6083 27.825 22.825C28.6083 22.0417 29 21.1 29 20V17H21V20C21 21.1 21.3917 22.0417 22.175 22.825C22.9583 23.6083 23.9 24 25 24ZM17 35V33H19V30C19 28.9833 19.2375 28.0292 19.7125 27.1375C20.1875 26.2458 20.85 25.5333 21.7 25C20.85 24.4667 20.1875 23.7542 19.7125 22.8625C19.2375 21.9708 19 21.0167 19 20V17H17V15H33V17H31V20C31 21.0167 30.7625 21.9708 30.2875 22.8625C29.8125 23.7542 29.15 24.4667 28.3 25C29.15 25.5333 29.8125 26.2458 30.2875 27.1375C30.7625 28.0292 31 28.9833 31 30V33H33V35H17Z" fill="#FF6636"/>
</g>
</svg>
